<?xml version="1.0" standalone="no"?>
<!DOCTYPE svg PUBLIC "-//W3C//DTD SVG 20010904//EN"
 "http://www.w3.org/TR/2001/REC-SVG-20010904/DTD/svg10.dtd">
<svg version="1.0" xmlns="http://www.w3.org/2000/svg"
 width="512.000000pt" height="512.000000pt" viewBox="0 0 512.000000 512.000000"
 preserveAspectRatio="xMidYMid meet">

<g transform="translate(0.000000,512.000000) scale(0.100000,-0.100000)"
fill="#000000" stroke="none">
<path d="M1484 4040 c-66 -4 -138 -13 -160 -20 -114 -37 -305 -206 -407 -361
-32 -48 -91 -153 -133 -233 l-75 -146 -90 0 -89 0 0 -70 c0 -68 1 -70 25 -70
30 0 32 -11 7 -33 -25 -23 -32 -21 -32 8 l0 26 -132 -3 -133 -3 0 -60 0 -60
93 -3 93 -3 -81 -92 c-45 -51 -95 -121 -113 -157 l-32 -65 0 -195 0 -195 32
-65 c42 -83 116 -182 223 -295 111 -117 143 -163 230 -325 87 -163 119 -206
252 -336 187 -184 216 -205 457 -344 146 -84 256 -138 463 -229 64 -28 188
-85 275 -127 352 -170 488 -228 554 -239 83 -12 194 -36 424 -90 344 -81 335
-80 740 -80 405 0 436 4 563 65 152 73 225 135 304 261 70 111 71 116 49 469
-7 124 -14 396 -15 605 -1 442 -5 417 105 637 92 183 99 214 99 418 0 267 -28
329 -223 493 -32 27 -67 67 -78 89 -23 44 -49 154 -49 207 0 84 -85 187 -243
292 -221 148 -388 205 -777 263 -263 40 -450 55 -840 66 -402 11 -1097 11
-1286 0z m1181 -100 c622 -18 1035 -60 940 -96 -42 -16 -580 13 -805 43 -180
25 -525 24 -639 0 -183 -40 -363 -109 -527 -203 -99 -57 -303 -192 -359 -238
-47 -38 -22 -42 32 -5 308 213 624 368 845 413 196 40 349 39 733 -6 141 -16
272 -22 605 -27 l425 -7 80 -28 c113 -39 301 -139 400 -213 97 -73 129 -127
139 -230 l6 -63 -215 0 c-198 0 -215 1 -215 18 -1 32 -37 97 -75 134 -46 45
-167 105 -240 121 -42 8 -91 7 -232 -7 -202 -19 -284 -35 -291 -55 -3 -10 4
-12 29 -8 208 32 282 39 389 41 l125 1 73 -38 c107 -56 192 -142 192 -196 0
-8 -106 -11 -365 -11 -288 0 -365 3 -365 13 0 7 9 29 20 50 21 39 26 67 12 67
-18 0 -41 -37 -53 -83 l-13 -47 -871 0 -870 1 60 57 c115 109 214 161 395 210
87 23 117 25 358 30 144 2 262 8 262 12 0 27 -451 23 -590 -5 -204 -41 -352
-119 -485 -254 l-49 -51 -343 0 c-189 0 -343 2 -343 5 0 17 118 235 170 315
95 144 241 275 352 317 83 30 670 41 1303 23z m2061 -945 c131 -121 146 -153
152 -330 3 -78 0 -152 -7 -186 -7 -31 -46 -126 -87 -210 -113 -230 -109 -200
-108 -709 1 -274 6 -502 15 -615 18 -237 17 -271 -16 -337 -38 -76 -101 -155
-160 -199 -63 -47 -202 -114 -279 -134 -88 -22 -270 -28 -476 -16 -226 14
-295 25 -592 100 -128 33 -289 71 -358 85 -173 37 -224 57 -585 231 -208 101
-291 139 -395 181 -156 65 -486 247 -597 331 -90 68 -260 231 -313 301 -28 37
-76 117 -107 177 -62 121 -137 237 -177 274 -37 34 -33 44 15 36 61 -11 42 10
-49 52 -111 52 -199 152 -256 292 -80 196 -57 326 90 510 128 159 167 180 379
207 66 8 121 17 124 20 2 2 -43 4 -100 4 -127 0 -140 6 -110 49 l22 31 285 0
284 0 0 -55 c0 -52 -1 -55 -25 -55 -37 0 -31 -28 10 -46 19 -7 56 -14 82 -13
l48 1 -43 10 c-57 12 -44 28 24 28 l54 0 0 -34 c0 -28 -4 -35 -25 -40 -16 -4
-25 -13 -25 -26 0 -21 15 -27 25 -10 9 15 25 12 25 -5 0 -12 13 -15 60 -15
l60 0 0 -65 c0 -36 -1 -65 -2 -65 -27 1 -193 64 -290 109 -86 40 -145 51 -279
51 -84 0 -120 -5 -161 -20 -101 -38 -192 -140 -238 -267 -54 -149 15 -423 106
-423 39 0 40 38 4 153 -18 56 -33 120 -33 143 0 55 50 160 105 220 60 66 111
86 231 92 l98 5 82 -41 c155 -78 350 -132 475 -132 40 0 52 -4 52 -15 0 -13
57 -15 473 -13 l472 3 3 63 3 62 69 0 70 0 0 65 0 65 60 0 59 0 3 68 3 67 133
3 c108 2 132 0 132 -12 0 -9 -16 -16 -46 -21 -63 -9 -74 -14 -74 -35 0 -21 22
-41 75 -68 77 -39 77 -40 86 -150 4 -55 14 -113 22 -129 21 -39 65 -79 109
-97 47 -20 78 -60 78 -101 0 -64 -133 -207 -205 -221 -26 -5 -41 -1 -65 16
-35 25 -67 20 -79 -13 -20 -54 54 -107 148 -107 68 0 91 13 181 105 41 42 90
85 108 97 29 18 37 19 58 8 22 -12 27 -11 53 14 36 35 57 31 192 -30 53 -24
102 -44 110 -44 30 1 -68 71 -121 86 -64 19 -93 38 -177 117 -35 31 -108 87
-163 123 -110 72 -129 93 -137 154 l-6 40 377 0 c207 0 376 -2 376 -4 0 -2
-29 -23 -65 -46 -71 -46 -70 -46 -171 -9 -52 20 -64 21 -78 10 -25 -21 -19
-60 15 -92 39 -37 83 -49 196 -56 87 -5 92 -5 115 19 12 13 30 38 40 55 27 52
62 68 148 68 63 0 87 -6 147 -33 58 -26 77 -31 93 -22 33 18 26 63 -15 98 -40
35 -82 49 -177 58 l-68 7 0 43 0 44 69 0 70 0 3 53 3 52 48 -2 c52 -1 53 -2
148 -80 35 -29 79 -64 97 -79 70 -57 99 -164 76 -284 -21 -110 -42 -167 -73
-192 -15 -13 -73 -45 -129 -73 -56 -27 -102 -53 -102 -58 0 -31 231 73 273
122 36 44 62 157 62 276 0 93 -2 105 -33 168 -22 45 -42 72 -62 82 -16 8 -55
37 -87 63 -32 27 -72 56 -88 65 -17 9 -24 16 -17 17 8 0 12 23 12 82 l0 81 30
-44 c16 -24 73 -84 126 -134z m-2986 85 l0 -70 60 0 60 0 0 70 0 70 70 0 70 0
0 -70 0 -70 75 0 75 0 0 -65 0 -65 70 0 70 0 0 -70 0 -70 -70 0 -70 0 0 70 0
70 -75 0 -75 0 0 -70 0 -71 -67 3 -68 3 -3 68 -3 67 -59 0 -60 0 0 65 0 65
-75 0 -75 0 0 70 0 70 75 0 75 0 0 -70z m1750 0 l0 -70 65 0 65 0 0 70 0 70
70 0 70 0 0 -70 0 -70 65 0 66 0 -3 -62 -3 -63 -60 0 -60 0 -3 63 -3 62 -69 0
-70 0 0 -65 0 -66 -62 3 -63 3 -3 63 -3 62 -69 0 -70 0 0 70 0 70 70 0 70 0 0
-70z"/>
<path d="M2335 3750 c-247 -25 -379 -59 -552 -140 -123 -58 -236 -134 -319
-215 -61 -60 -93 -105 -75 -105 5 0 49 37 98 82 103 96 171 142 308 208 214
105 406 144 705 144 157 0 219 -4 320 -22 261 -46 504 -50 900 -16 188 16 218
14 286 -19 46 -22 66 -18 44 8 -43 52 -138 60 -375 33 -73 -8 -229 -13 -395
-13 -256 0 -286 2 -435 29 -178 31 -363 40 -510 26z"/>
<path d="M2565 3533 c10 -16 26 -37 36 -48 23 -26 56 -100 64 -147 10 -53 24
-38 18 19 -7 76 -23 113 -66 160 -46 50 -81 61 -52 16z"/>
<path d="M723 2999 c-80 -10 -109 -26 -170 -93 -87 -95 -97 -126 -101 -305 -5
-247 16 -353 84 -425 28 -29 146 -90 199 -102 27 -6 28 -5 15 9 -8 8 -47 32
-87 54 -83 44 -126 80 -148 123 -25 48 -47 223 -43 345 3 101 6 116 35 175 44
89 114 167 161 179 20 6 109 17 197 26 88 9 161 18 164 21 7 7 -240 2 -306 -7z"/>
<path d="M4498 2857 c6 -7 38 -28 71 -47 50 -28 63 -41 75 -74 19 -54 38 -198
30 -222 -4 -10 -32 -46 -63 -78 -61 -65 -56 -85 10 -42 80 54 96 124 64 299
-17 98 -33 122 -98 153 -58 26 -107 33 -89 11z"/>
<path d="M1072 2710 c-10 -11 -27 -48 -37 -81 -25 -81 -56 -110 -162 -151 -70
-27 -89 -39 -91 -56 -4 -29 30 -42 111 -42 41 0 70 -6 85 -16 34 -24 55 -72
49 -115 -4 -34 0 -45 45 -101 28 -34 77 -103 111 -153 132 -198 252 -341 367
-439 316 -268 536 -384 876 -461 447 -100 1273 -95 1641 11 158 45 244 114
308 249 48 100 64 169 76 340 22 301 -15 637 -77 710 -13 16 -29 47 -35 69
-26 94 -36 110 -63 100 -18 -7 -32 -47 -46 -139 -13 -82 -41 -149 -78 -189
-61 -65 -239 -159 -382 -200 -208 -61 -600 -61 -953 -1 -193 34 -678 170 -997
281 -166 57 -406 159 -514 218 -120 66 -162 99 -169 134 -9 43 -40 59 -65 32z
m240 -293 c242 -118 258 -136 258 -272 0 -63 -3 -75 -17 -75 -9 0 -85 34 -169
75 -178 87 -230 131 -263 219 -21 58 -27 107 -13 120 15 16 74 -4 204 -67z
m588 -238 c91 -28 208 -63 261 -79 53 -17 102 -37 109 -45 11 -13 10 -31 -5
-100 -27 -129 -17 -126 -180 -62 -77 30 -164 60 -193 67 -30 7 -72 26 -95 44
-57 43 -127 148 -127 190 0 58 -12 59 230 -15z m2430 -13 c-1 -21 -1 -21 -20
3 -11 13 -20 33 -20 45 1 21 1 21 20 -3 11 -13 20 -33 20 -45z m-114 -78 c22
-42 64 -167 64 -189 0 -23 -60 -73 -73 -60 -16 16 -26 90 -27 189 0 98 9 113
36 60z m-2752 -111 c88 -46 111 -74 121 -149 8 -58 -8 -108 -35 -108 -25 0
-113 99 -199 224 -39 57 -71 107 -71 110 0 9 97 -32 184 -77z m2614 -46 c5
-93 -20 -154 -72 -171 -62 -20 -80 -12 -87 40 -4 25 -10 66 -14 92 -10 59 0
71 80 109 76 37 88 28 93 -70z m-1457 44 c249 -52 251 -53 263 -158 10 -89 2
-97 -99 -97 -135 0 -419 63 -431 95 -6 16 21 148 37 177 13 25 32 23 230 -17z
m1148 -74 c20 -20 41 -80 41 -118 0 -30 -21 -39 -113 -52 -119 -17 -232 -14
-248 5 -19 23 -24 117 -7 132 8 6 54 18 104 26 179 30 199 31 223 7z m-574 -6
c61 -8 111 -15 112 -15 6 0 24 -110 22 -130 l-4 -25 -152 -3 c-183 -3 -183 -3
-183 97 0 39 5 72 12 79 16 16 58 15 193 -3z m-1358 -99 c111 -49 207 -87 272
-107 25 -8 53 -26 64 -40 18 -25 18 -29 3 -90 -19 -72 -72 -193 -92 -210 -8
-6 -25 -8 -39 -5 -29 7 -335 211 -377 251 -33 31 -34 38 -8 81 12 18 23 57 26
86 3 29 7 59 10 66 6 21 41 13 141 -32z m650 -225 c67 -22 150 -47 185 -56
116 -30 122 -43 112 -217 -5 -82 -12 -115 -24 -131 -17 -21 -20 -21 -111 -9
-109 14 -305 62 -387 95 -43 16 -58 28 -60 44 -2 13 15 62 38 110 30 61 44
105 48 148 3 33 9 63 15 66 11 8 12 7 184 -50z m1792 -160 c-45 -108 -59 -129
-59 -84 0 29 35 111 73 172 36 60 30 17 -14 -88z m-1313 35 c11 -4 81 -13 154
-20 166 -18 168 -20 151 -113 -24 -129 -33 -163 -48 -178 -11 -12 -42 -15
-137 -15 -68 0 -137 3 -154 6 -45 9 -56 51 -48 182 9 122 18 155 44 148 9 -2
26 -7 38 -10z m1147 -68 c-19 -75 -11 -98 34 -98 41 0 21 -23 -43 -49 -58 -23
-144 -40 -144 -27 0 21 94 198 120 226 42 45 52 30 33 -52z m-192 14 c-32 -62
-64 -143 -70 -177 -6 -34 -11 -42 -41 -52 -37 -13 -103 -17 -112 -7 -8 7 45
164 68 203 14 24 28 31 83 43 74 16 85 14 72 -10z m-326 -10 c30 -5 41 -12 43
-28 3 -23 -79 -194 -103 -214 -9 -8 -52 -15 -95 -18 -97 -6 -98 -4 -75 110 23
111 38 145 67 151 37 7 120 6 163 -1z"/>
<path d="M2330 2507 c0 -48 -26 -57 -205 -67 -152 -8 -185 -14 -185 -32 0 -12
195 -3 314 13 84 11 108 29 104 78 -4 47 -28 54 -28 8z"/>
<path d="M2475 2516 c-60 -27 -78 -58 -83 -143 -5 -99 11 -142 67 -177 48 -31
77 -33 91 -7 16 31 12 51 -20 87 -34 39 -45 73 -36 108 7 27 34 39 125 56 30
5 60 15 68 21 21 18 15 45 -12 57 -35 16 -163 14 -200 -2z"/>
<path d="M2675 2353 c-34 -9 -45 -24 -45 -60 0 -67 33 -92 73 -55 15 13 44 18
138 22 119 5 147 14 136 44 -11 29 -78 48 -182 52 -55 1 -109 0 -120 -3z"/>
<path d="M1540 1270 c38 -29 367 -191 525 -258 354 -150 534 -206 735 -227
382 -39 1001 -46 1125 -11 100 28 201 81 261 138 107 101 94 119 -19 28 -130
-104 -262 -156 -426 -166 -139 -9 -838 23 -1016 47 -164 22 -534 161 -930 349
-123 59 -263 120 -273 120 -4 0 4 -9 18 -20z"/>
<path d="M1270 1266 c45 -46 488 -269 715 -359 191 -76 369 -128 630 -182 441
-93 695 -118 1195 -119 l335 -1 67 32 c88 42 223 129 248 160 15 20 20 40 19
87 l-1 61 -10 -44 c-5 -25 -17 -55 -25 -68 -20 -31 -164 -125 -260 -171 -73
-34 -81 -36 -207 -40 -163 -5 -605 13 -791 34 -199 22 -723 124 -925 180 -126
36 -431 167 -684 295 -149 75 -282 139 -296 144 -22 6 -23 6 -10 -9z"/>
<path d="M3183 903 c53 -2 141 -2 195 0 53 1 9 3 -98 3 -107 0 -151 -2 -97 -3z"/>
<path d="M1860 2945 l0 -65 70 0 70 0 0 65 0 65 -70 0 -70 0 0 -65z"/>
</g>
</svg>
