<svg width="1221" height="59" viewBox="0 0 1221 59" fill="none" xmlns="http://www.w3.org/2000/svg">
<path d="M985 2H1159.67C1161.37 2 1163.05 2.2973 1164.64 2.87838L1172.33 5.68441C1189.55 11.9669 1204.83 22.6448 1216.64 36.6576C1218.49 38.8471 1219.5 41.6187 1219.5 44.4825V48C1219.5 49.3807 1218.38 50.5 1217 50.5H985C983.067 50.5 981.5 48.933 981.5 47V5.5C981.5 3.567 983.067 2 985 2Z" stroke="white" stroke-width="3"/>
<mask id="path-2-inside-1_15_940" fill="white">
<path fill-rule="evenodd" clip-rule="evenodd" d="M980 5.5C980 2.73858 982.239 0.5 985 0.5H1159.67C1161.54 0.5 1163.4 0.82805 1165.16 1.46924L1172.85 4.27528C1179.23 6.60507 1185.35 9.53084 1191.14 13H1187C1185.34 13 1184 14.3431 1184 16V28C1184 29.6569 1185.34 31 1187 31H1213.59C1215.03 32.5193 1216.43 34.0834 1217.79 35.6907C1219.86 38.1507 1221 41.2648 1221 44.4825V48C1221 50.2091 1219.21 52 1217 52H985C982.239 52 980 49.7614 980 47V5.5ZM986 16C986 14.3431 987.343 13 989 13H1082C1083.66 13 1085 14.3431 1085 16V28C1085 29.6569 1083.66 31 1082 31H989C987.343 31 986 29.6569 986 28V16ZM1118 13C1116.34 13 1115 14.3431 1115 16V28C1115 29.6569 1116.34 31 1118 31H1175C1176.66 31 1178 29.6569 1178 28V16C1178 14.3431 1176.66 13 1175 13H1118ZM1089 13C1089 11.3431 1090.34 10 1092 10H1108C1109.66 10 1111 11.3431 1111 13V44C1111 45.6569 1109.66 47 1108 47H1092C1090.34 47 1089 45.6569 1089 44V13Z"/>
</mask>
<path fill-rule="evenodd" clip-rule="evenodd" d="M980 5.5C980 2.73858 982.239 0.5 985 0.5H1159.67C1161.54 0.5 1163.4 0.82805 1165.16 1.46924L1172.85 4.27528C1179.23 6.60507 1185.35 9.53084 1191.14 13H1187C1185.34 13 1184 14.3431 1184 16V28C1184 29.6569 1185.34 31 1187 31H1213.59C1215.03 32.5193 1216.43 34.0834 1217.79 35.6907C1219.86 38.1507 1221 41.2648 1221 44.4825V48C1221 50.2091 1219.21 52 1217 52H985C982.239 52 980 49.7614 980 47V5.5ZM986 16C986 14.3431 987.343 13 989 13H1082C1083.66 13 1085 14.3431 1085 16V28C1085 29.6569 1083.66 31 1082 31H989C987.343 31 986 29.6569 986 28V16ZM1118 13C1116.34 13 1115 14.3431 1115 16V28C1115 29.6569 1116.34 31 1118 31H1175C1176.66 31 1178 29.6569 1178 28V16C1178 14.3431 1176.66 13 1175 13H1118ZM1089 13C1089 11.3431 1090.34 10 1092 10H1108C1109.66 10 1111 11.3431 1111 13V44C1111 45.6569 1109.66 47 1108 47H1092C1090.34 47 1089 45.6569 1089 44V13Z" fill="white"/>
<path d="M1165.16 1.46924L1166.18 -1.34902L1166.18 -1.34902L1165.16 1.46924ZM1172.85 4.27528L1171.82 7.09354L1171.82 7.09354L1172.85 4.27528ZM1191.14 13V16H1201.97L1192.68 10.4274L1191.14 13ZM1213.59 31L1215.77 28.9342L1214.88 28H1213.59V31ZM1217.79 35.6907L1215.49 37.6245L1215.49 37.6245L1217.79 35.6907ZM985 -2.5C980.582 -2.5 977 1.08172 977 5.5H983C983 4.39543 983.895 3.5 985 3.5V-2.5ZM1159.67 -2.5H985V3.5H1159.67V-2.5ZM1166.18 -1.34902C1164.1 -2.11044 1161.89 -2.5 1159.67 -2.5V3.5C1161.19 3.5 1162.7 3.76654 1164.13 4.28751L1166.18 -1.34902ZM1173.88 1.45701L1166.18 -1.34902L1164.13 4.28751L1171.82 7.09354L1173.88 1.45701ZM1192.68 10.4274C1186.73 6.86054 1180.44 3.85239 1173.88 1.45701L1171.82 7.09354C1178.02 9.35775 1183.97 12.2011 1189.59 15.5726L1192.68 10.4274ZM1187 16H1191.14V10H1187V16ZM1187 16V10C1183.69 10 1181 12.6863 1181 16H1187ZM1187 28V16H1181V28H1187ZM1187 28H1181C1181 31.3137 1183.69 34 1187 34V28ZM1213.59 28H1187V34H1213.59V28ZM1220.08 33.7569C1218.69 32.1043 1217.25 30.4962 1215.77 28.9342L1211.41 33.0658C1212.82 34.5423 1214.18 36.0624 1215.49 37.6245L1220.08 33.7569ZM1224 44.4825C1224 40.5571 1222.61 36.758 1220.08 33.7569L1215.49 37.6245C1217.11 39.5434 1218 41.9726 1218 44.4825H1224ZM1224 48V44.4825H1218V48H1224ZM1217 55C1220.87 55 1224 51.866 1224 48H1218C1218 48.5523 1217.55 49 1217 49V55ZM985 55H1217V49H985V55ZM977 47C977 51.4183 980.582 55 985 55V49C983.895 49 983 48.1046 983 47H977ZM977 5.5V47H983V5.5H977ZM989 10C985.686 10 983 12.6863 983 16H989V10ZM1082 10H989V16H1082V10ZM1088 16C1088 12.6863 1085.31 10 1082 10V16H1088ZM1088 28V16H1082V28H1088ZM1082 34C1085.31 34 1088 31.3137 1088 28H1082V34ZM989 34H1082V28H989V34ZM983 28C983 31.3137 985.686 34 989 34V28H989H983ZM983 16V28H989V16H983ZM1118 16V10C1114.69 10 1112 12.6863 1112 16H1118ZM1118 28V16H1112V28H1118ZM1118 28H1112C1112 31.3137 1114.69 34 1118 34V28ZM1175 28H1118V34H1175V28ZM1175 28V34C1178.31 34 1181 31.3137 1181 28H1175ZM1175 16V28H1181V16H1175ZM1175 16H1181C1181 12.6863 1178.31 10 1175 10V16ZM1118 16H1175V10H1118V16ZM1092 7C1088.69 7 1086 9.68629 1086 13H1092V7ZM1108 7H1092V13H1108V7ZM1114 13C1114 9.68629 1111.31 7 1108 7V13H1114ZM1114 44V13H1108V44H1114ZM1108 50C1111.31 50 1114 47.3137 1114 44H1108V50ZM1092 50H1108V44H1092V50ZM1086 44C1086 47.3137 1088.69 50 1092 50V44H1086ZM1086 13V44H1092V13H1086Z" fill="white" mask="url(#path-2-inside-1_15_940)"/>
<line x1="1010.5" y1="12" x2="1010.5" y2="32" stroke="white" stroke-width="3"/>
<line x1="1036.5" y1="12" x2="1036.5" y2="32" stroke="white" stroke-width="3"/>
<line x1="1061.5" y1="12" x2="1061.5" y2="32" stroke="white" stroke-width="3"/>
<line x1="1135.5" y1="12" x2="1135.5" y2="32" stroke="white" stroke-width="3"/>
<line x1="1156.5" y1="12" x2="1156.5" y2="32" stroke="white" stroke-width="3"/>
<line x1="1100.5" y1="9" x2="1100.5" y2="48" stroke="white" stroke-width="3"/>
<line x1="856.5" y1="9" x2="856.5" y2="48" stroke="white" stroke-width="3"/>
<line x1="611.5" y1="9" x2="611.5" y2="48" stroke="white" stroke-width="3"/>
<line x1="366.5" y1="9" x2="366.5" y2="48" stroke="white" stroke-width="3"/>
<line x1="121.5" y1="9" x2="121.5" y2="48" stroke="white" stroke-width="3"/>
<path d="M1019.31 52.5C1018.64 55.0878 1016.3 57 1013.5 57C1010.7 57 1008.36 55.0878 1007.69 52.5L1008.2 52.5L1013.5 52.5L1018.8 52.5L1019.31 52.5Z" fill="white" stroke="white" stroke-width="3"/>
<path d="M1039.31 52.5C1038.64 55.0878 1036.3 57 1033.5 57C1030.7 57 1028.36 55.0878 1027.69 52.5L1028.2 52.5L1033.5 52.5L1038.8 52.5L1039.31 52.5Z" fill="white" stroke="white" stroke-width="3"/>
<path d="M1017.59 55.5L1014.34 52.5H1033.22L1029.47 55.5H1017.59Z" fill="white" stroke="white" stroke-width="3"/>
<path d="M775.311 52.5C774.645 55.0878 772.296 57 769.5 57C766.704 57 764.355 55.0878 763.689 52.5L764.197 52.5L769.5 52.5L774.803 52.5L775.311 52.5Z" fill="white" stroke="white" stroke-width="3"/>
<path d="M795.311 52.5C794.645 55.0878 792.296 57 789.5 57C786.704 57 784.355 55.0878 783.689 52.5L784.197 52.5L789.5 52.5L794.803 52.5L795.311 52.5Z" fill="white" stroke="white" stroke-width="3"/>
<path d="M773.586 55.5L770.336 52.5H789.224L785.474 55.5H773.586Z" fill="white" stroke="white" stroke-width="3"/>
<path d="M530.311 52.5C529.645 55.0878 527.296 57 524.5 57C521.704 57 519.355 55.0878 518.689 52.5L519.197 52.5L524.5 52.5L529.803 52.5L530.311 52.5Z" fill="white" stroke="white" stroke-width="3"/>
<path d="M550.311 52.5C549.645 55.0878 547.296 57 544.5 57C541.704 57 539.355 55.0878 538.689 52.5L539.197 52.5L544.5 52.5L549.803 52.5L550.311 52.5Z" fill="white" stroke="white" stroke-width="3"/>
<path d="M528.586 55.5L525.336 52.5H544.224L540.474 55.5H528.586Z" fill="white" stroke="white" stroke-width="3"/>
<path d="M285.311 52.5C284.645 55.0878 282.296 57 279.5 57C276.704 57 274.355 55.0878 273.689 52.5L274.197 52.5L279.5 52.5L284.803 52.5L285.311 52.5Z" fill="white" stroke="white" stroke-width="3"/>
<path d="M305.311 52.5C304.645 55.0878 302.296 57 299.5 57C296.704 57 294.355 55.0878 293.689 52.5L294.197 52.5L299.5 52.5L304.803 52.5L305.311 52.5Z" fill="white" stroke="white" stroke-width="3"/>
<path d="M283.586 55.5L280.336 52.5H299.224L295.474 55.5H283.586Z" fill="white" stroke="white" stroke-width="3"/>
<path d="M40.311 52.5C39.6449 55.0878 37.2958 57 34.5 57C31.7042 57 29.3551 55.0878 28.689 52.5L29.1967 52.5L34.5 52.5L39.8033 52.5L40.311 52.5Z" fill="white" stroke="white" stroke-width="3"/>
<path d="M60.311 52.5C59.6449 55.0878 57.2958 57 54.5 57C51.7042 57 49.3551 55.0878 48.689 52.5L49.1967 52.5L54.5 52.5L59.8033 52.5L60.311 52.5Z" fill="white" stroke="white" stroke-width="3"/>
<path d="M38.5865 55.5L35.3365 52.5H54.2238L50.4738 55.5H38.5865Z" fill="white" stroke="white" stroke-width="3"/>
<path d="M927.311 52.5C926.645 55.0878 924.296 57 921.5 57C918.704 57 916.355 55.0878 915.689 52.5L916.197 52.5L921.5 52.5L926.803 52.5L927.311 52.5Z" fill="white" stroke="white" stroke-width="3"/>
<path d="M947.311 52.5C946.645 55.0878 944.296 57 941.5 57C938.704 57 936.355 55.0878 935.689 52.5L936.197 52.5L941.5 52.5L946.803 52.5L947.311 52.5Z" fill="white" stroke="white" stroke-width="3"/>
<path d="M925.586 55.5L922.336 52.5H941.224L937.474 55.5H925.586Z" fill="white" stroke="white" stroke-width="3"/>
<path d="M682.311 52.5C681.645 55.0878 679.296 57 676.5 57C673.704 57 671.355 55.0878 670.689 52.5L671.197 52.5L676.5 52.5L681.803 52.5L682.311 52.5Z" fill="white" stroke="white" stroke-width="3"/>
<path d="M702.311 52.5C701.645 55.0878 699.296 57 696.5 57C693.704 57 691.355 55.0878 690.689 52.5L691.197 52.5L696.5 52.5L701.803 52.5L702.311 52.5Z" fill="white" stroke="white" stroke-width="3"/>
<path d="M680.586 55.5L677.336 52.5H696.224L692.474 55.5H680.586Z" fill="white" stroke="white" stroke-width="3"/>
<path d="M437.311 52.5C436.645 55.0878 434.296 57 431.5 57C428.704 57 426.355 55.0878 425.689 52.5L426.197 52.5L431.5 52.5L436.803 52.5L437.311 52.5Z" fill="white" stroke="white" stroke-width="3"/>
<path d="M457.311 52.5C456.645 55.0878 454.296 57 451.5 57C448.704 57 446.355 55.0878 445.689 52.5L446.197 52.5L451.5 52.5L456.803 52.5L457.311 52.5Z" fill="white" stroke="white" stroke-width="3"/>
<path d="M435.586 55.5L432.336 52.5H451.224L447.474 55.5H435.586Z" fill="white" stroke="white" stroke-width="3"/>
<path d="M192.311 52.5C191.645 55.0878 189.296 57 186.5 57C183.704 57 181.355 55.0878 180.689 52.5L181.197 52.5L186.5 52.5L191.803 52.5L192.311 52.5Z" fill="white" stroke="white" stroke-width="3"/>
<path d="M212.311 52.5C211.645 55.0878 209.296 57 206.5 57C203.704 57 201.355 55.0878 200.689 52.5L201.197 52.5L206.5 52.5L211.803 52.5L212.311 52.5Z" fill="white" stroke="white" stroke-width="3"/>
<path d="M190.586 55.5L187.336 52.5H206.224L202.474 55.5H190.586Z" fill="white" stroke="white" stroke-width="3"/>
<path d="M1171.31 52.5C1170.64 55.0878 1168.3 57 1165.5 57C1162.7 57 1160.36 55.0878 1159.69 52.5L1160.2 52.5L1165.5 52.5L1170.8 52.5L1171.31 52.5Z" fill="white" stroke="white" stroke-width="3"/>
<path d="M1191.31 52.5C1190.64 55.0878 1188.3 57 1185.5 57C1182.7 57 1180.36 55.0878 1179.69 52.5L1180.2 52.5L1185.5 52.5L1190.8 52.5L1191.31 52.5Z" fill="white" stroke="white" stroke-width="3"/>
<path d="M1169.59 55.5L1166.34 52.5H1185.22L1181.47 55.5H1169.59Z" fill="white" stroke="white" stroke-width="3"/>
<mask id="path-44-inside-2_15_940" fill="white">
<path fill-rule="evenodd" clip-rule="evenodd" d="M740 0C737.239 0 735 2.23858 735 5V47C735 49.7614 737.239 52 740 52H971C973.761 52 976 49.7614 976 47V5C976 2.23858 973.761 0 971 0H740ZM747 13C744.239 13 742 15.2386 742 18V27C742 29.7614 744.239 32 747 32H835C837.761 32 840 29.7614 840 27V18C840 15.2386 837.761 13 835 13H747ZM872 17C872 14.7909 873.791 13 876 13H966C968.209 13 970 14.7909 970 17V27C970 29.2091 968.209 31 966 31H876C873.791 31 872 29.2091 872 27V17ZM849 10C846.791 10 845 11.7909 845 14V43C845 45.2091 846.791 47 849 47H863C865.209 47 867 45.2091 867 43V14C867 11.7909 865.209 10 863 10H849Z"/>
</mask>
<path fill-rule="evenodd" clip-rule="evenodd" d="M740 0C737.239 0 735 2.23858 735 5V47C735 49.7614 737.239 52 740 52H971C973.761 52 976 49.7614 976 47V5C976 2.23858 973.761 0 971 0H740ZM747 13C744.239 13 742 15.2386 742 18V27C742 29.7614 744.239 32 747 32H835C837.761 32 840 29.7614 840 27V18C840 15.2386 837.761 13 835 13H747ZM872 17C872 14.7909 873.791 13 876 13H966C968.209 13 970 14.7909 970 17V27C970 29.2091 968.209 31 966 31H876C873.791 31 872 29.2091 872 27V17ZM849 10C846.791 10 845 11.7909 845 14V43C845 45.2091 846.791 47 849 47H863C865.209 47 867 45.2091 867 43V14C867 11.7909 865.209 10 863 10H849Z" fill="white"/>
<path d="M738 5C738 3.89543 738.895 3 740 3V-3C735.582 -3 732 0.581723 732 5H738ZM738 47V5H732V47H738ZM740 49C738.895 49 738 48.1046 738 47H732C732 51.4183 735.582 55 740 55V49ZM971 49H740V55H971V49ZM973 47C973 48.1046 972.105 49 971 49V55C975.418 55 979 51.4183 979 47H973ZM973 5V47H979V5H973ZM971 3C972.105 3 973 3.89543 973 5H979C979 0.581724 975.418 -3 971 -3V3ZM740 3H971V-3H740V3ZM745 18C745 16.8954 745.895 16 747 16V10C742.582 10 739 13.5817 739 18H745ZM745 27V18H739V27H745ZM747 29C745.895 29 745 28.1046 745 27H739C739 31.4183 742.582 35 747 35V29ZM835 29H747V35H835V29ZM837 27C837 28.1046 836.105 29 835 29V35C839.418 35 843 31.4183 843 27H837ZM837 18V27H843V18H837ZM835 16C836.105 16 837 16.8954 837 18H843C843 13.5817 839.418 10 835 10V16ZM747 16H835V10H747V16ZM876 10C872.134 10 869 13.134 869 17H875C875 16.4477 875.448 16 876 16V10ZM966 10H876V16H966V10ZM973 17C973 13.134 969.866 10 966 10V16C966.552 16 967 16.4477 967 17H973ZM973 27V17H967V27H973ZM966 34C969.866 34 973 30.866 973 27H967C967 27.5523 966.552 28 966 28V34ZM876 34H966V28H876V34ZM869 27C869 30.866 872.134 34 876 34V28C875.448 28 875 27.5523 875 27H869ZM869 17V27H875V17H869ZM848 14C848 13.4477 848.448 13 849 13V7C845.134 7 842 10.134 842 14H848ZM848 43V14H842V43H848ZM849 44C848.448 44 848 43.5523 848 43H842C842 46.866 845.134 50 849 50V44ZM863 44H849V50H863V44ZM864 43C864 43.5523 863.552 44 863 44V50C866.866 50 870 46.866 870 43H864ZM864 14V43H870V14H864ZM863 13C863.552 13 864 13.4477 864 14H870C870 10.134 866.866 7 863 7V13ZM849 13H863V7H849V13Z" fill="white" mask="url(#path-44-inside-2_15_940)"/>
<mask id="path-46-inside-3_15_940" fill="white">
<path fill-rule="evenodd" clip-rule="evenodd" d="M495 0C492.239 0 490 2.23858 490 5V47C490 49.7614 492.239 52 495 52H726C728.761 52 731 49.7614 731 47V5C731 2.23858 728.761 0 726 0H495ZM502 13C499.239 13 497 15.2386 497 18V27C497 29.7614 499.239 32 502 32H590C592.761 32 595 29.7614 595 27V18C595 15.2386 592.761 13 590 13H502ZM627 17C627 14.7909 628.791 13 631 13H721C723.209 13 725 14.7909 725 17V27C725 29.2091 723.209 31 721 31H631C628.791 31 627 29.2091 627 27V17ZM604 10C601.791 10 600 11.7909 600 14V43C600 45.2091 601.791 47 604 47H618C620.209 47 622 45.2091 622 43V14C622 11.7909 620.209 10 618 10H604Z"/>
</mask>
<path fill-rule="evenodd" clip-rule="evenodd" d="M495 0C492.239 0 490 2.23858 490 5V47C490 49.7614 492.239 52 495 52H726C728.761 52 731 49.7614 731 47V5C731 2.23858 728.761 0 726 0H495ZM502 13C499.239 13 497 15.2386 497 18V27C497 29.7614 499.239 32 502 32H590C592.761 32 595 29.7614 595 27V18C595 15.2386 592.761 13 590 13H502ZM627 17C627 14.7909 628.791 13 631 13H721C723.209 13 725 14.7909 725 17V27C725 29.2091 723.209 31 721 31H631C628.791 31 627 29.2091 627 27V17ZM604 10C601.791 10 600 11.7909 600 14V43C600 45.2091 601.791 47 604 47H618C620.209 47 622 45.2091 622 43V14C622 11.7909 620.209 10 618 10H604Z" fill="white"/>
<path d="M493 5C493 3.89543 493.895 3 495 3V-3C490.582 -3 487 0.581723 487 5H493ZM493 47V5H487V47H493ZM495 49C493.895 49 493 48.1046 493 47H487C487 51.4183 490.582 55 495 55V49ZM726 49H495V55H726V49ZM728 47C728 48.1046 727.105 49 726 49V55C730.418 55 734 51.4183 734 47H728ZM728 5V47H734V5H728ZM726 3C727.105 3 728 3.89543 728 5H734C734 0.581724 730.418 -3 726 -3V3ZM495 3H726V-3H495V3ZM500 18C500 16.8954 500.895 16 502 16V10C497.582 10 494 13.5817 494 18H500ZM500 27V18H494V27H500ZM502 29C500.895 29 500 28.1046 500 27H494C494 31.4183 497.582 35 502 35V29ZM590 29H502V35H590V29ZM592 27C592 28.1046 591.105 29 590 29V35C594.418 35 598 31.4183 598 27H592ZM592 18V27H598V18H592ZM590 16C591.105 16 592 16.8954 592 18H598C598 13.5817 594.418 10 590 10V16ZM502 16H590V10H502V16ZM631 10C627.134 10 624 13.134 624 17H630C630 16.4477 630.448 16 631 16V10ZM721 10H631V16H721V10ZM728 17C728 13.134 724.866 10 721 10V16C721.552 16 722 16.4477 722 17H728ZM728 27V17H722V27H728ZM721 34C724.866 34 728 30.866 728 27H722C722 27.5523 721.552 28 721 28V34ZM631 34H721V28H631V34ZM624 27C624 30.866 627.134 34 631 34V28C630.448 28 630 27.5523 630 27H624ZM624 17V27H630V17H624ZM603 14C603 13.4477 603.448 13 604 13V7C600.134 7 597 10.134 597 14H603ZM603 43V14H597V43H603ZM604 44C603.448 44 603 43.5523 603 43H597C597 46.866 600.134 50 604 50V44ZM618 44H604V50H618V44ZM619 43C619 43.5523 618.552 44 618 44V50C621.866 50 625 46.866 625 43H619ZM619 14V43H625V14H619ZM618 13C618.552 13 619 13.4477 619 14H625C625 10.134 621.866 7 618 7V13ZM604 13H618V7H604V13Z" fill="white" mask="url(#path-46-inside-3_15_940)"/>
<mask id="path-48-inside-4_15_940" fill="white">
<path fill-rule="evenodd" clip-rule="evenodd" d="M250 0C247.239 0 245 2.23858 245 5V47C245 49.7614 247.239 52 250 52H481C483.761 52 486 49.7614 486 47V5C486 2.23858 483.761 0 481 0H250ZM257 13C254.239 13 252 15.2386 252 18V27C252 29.7614 254.239 32 257 32H345C347.761 32 350 29.7614 350 27V18C350 15.2386 347.761 13 345 13H257ZM382 17C382 14.7909 383.791 13 386 13H476C478.209 13 480 14.7909 480 17V27C480 29.2091 478.209 31 476 31H386C383.791 31 382 29.2091 382 27V17ZM359 10C356.791 10 355 11.7909 355 14V43C355 45.2091 356.791 47 359 47H373C375.209 47 377 45.2091 377 43V14C377 11.7909 375.209 10 373 10H359Z"/>
</mask>
<path fill-rule="evenodd" clip-rule="evenodd" d="M250 0C247.239 0 245 2.23858 245 5V47C245 49.7614 247.239 52 250 52H481C483.761 52 486 49.7614 486 47V5C486 2.23858 483.761 0 481 0H250ZM257 13C254.239 13 252 15.2386 252 18V27C252 29.7614 254.239 32 257 32H345C347.761 32 350 29.7614 350 27V18C350 15.2386 347.761 13 345 13H257ZM382 17C382 14.7909 383.791 13 386 13H476C478.209 13 480 14.7909 480 17V27C480 29.2091 478.209 31 476 31H386C383.791 31 382 29.2091 382 27V17ZM359 10C356.791 10 355 11.7909 355 14V43C355 45.2091 356.791 47 359 47H373C375.209 47 377 45.2091 377 43V14C377 11.7909 375.209 10 373 10H359Z" fill="white"/>
<path d="M248 5C248 3.89543 248.895 3 250 3V-3C245.582 -3 242 0.581723 242 5H248ZM248 47V5H242V47H248ZM250 49C248.895 49 248 48.1046 248 47H242C242 51.4183 245.582 55 250 55V49ZM481 49H250V55H481V49ZM483 47C483 48.1046 482.105 49 481 49V55C485.418 55 489 51.4183 489 47H483ZM483 5V47H489V5H483ZM481 3C482.105 3 483 3.89543 483 5H489C489 0.581724 485.418 -3 481 -3V3ZM250 3H481V-3H250V3ZM255 18C255 16.8954 255.895 16 257 16V10C252.582 10 249 13.5817 249 18H255ZM255 27V18H249V27H255ZM257 29C255.895 29 255 28.1046 255 27H249C249 31.4183 252.582 35 257 35V29ZM345 29H257V35H345V29ZM347 27C347 28.1046 346.105 29 345 29V35C349.418 35 353 31.4183 353 27H347ZM347 18V27H353V18H347ZM345 16C346.105 16 347 16.8954 347 18H353C353 13.5817 349.418 10 345 10V16ZM257 16H345V10H257V16ZM386 10C382.134 10 379 13.134 379 17H385C385 16.4477 385.448 16 386 16V10ZM476 10H386V16H476V10ZM483 17C483 13.134 479.866 10 476 10V16C476.552 16 477 16.4477 477 17H483ZM483 27V17H477V27H483ZM476 34C479.866 34 483 30.866 483 27H477C477 27.5523 476.552 28 476 28V34ZM386 34H476V28H386V34ZM379 27C379 30.866 382.134 34 386 34V28C385.448 28 385 27.5523 385 27H379ZM379 17V27H385V17H379ZM358 14C358 13.4477 358.448 13 359 13V7C355.134 7 352 10.134 352 14H358ZM358 43V14H352V43H358ZM359 44C358.448 44 358 43.5523 358 43H352C352 46.866 355.134 50 359 50V44ZM373 44H359V50H373V44ZM374 43C374 43.5523 373.552 44 373 44V50C376.866 50 380 46.866 380 43H374ZM374 14V43H380V14H374ZM373 13C373.552 13 374 13.4477 374 14H380C380 10.134 376.866 7 373 7V13ZM359 13H373V7H359V13Z" fill="white" mask="url(#path-48-inside-4_15_940)"/>
<mask id="path-50-inside-5_15_940" fill="white">
<path fill-rule="evenodd" clip-rule="evenodd" d="M5 0C2.23858 0 0 2.23858 0 5V47C0 49.7614 2.23858 52 5 52H236C238.761 52 241 49.7614 241 47V5C241 2.23858 238.761 0 236 0H5ZM12 13C9.23858 13 7 15.2386 7 18V27C7 29.7614 9.23857 32 12 32H100C102.761 32 105 29.7614 105 27V18C105 15.2386 102.761 13 100 13H12ZM137 17C137 14.7909 138.791 13 141 13H231C233.209 13 235 14.7909 235 17V27C235 29.2091 233.209 31 231 31H141C138.791 31 137 29.2091 137 27V17ZM114 10C111.791 10 110 11.7909 110 14V43C110 45.2091 111.791 47 114 47H128C130.209 47 132 45.2091 132 43V14C132 11.7909 130.209 10 128 10H114Z"/>
</mask>
<path fill-rule="evenodd" clip-rule="evenodd" d="M5 0C2.23858 0 0 2.23858 0 5V47C0 49.7614 2.23858 52 5 52H236C238.761 52 241 49.7614 241 47V5C241 2.23858 238.761 0 236 0H5ZM12 13C9.23858 13 7 15.2386 7 18V27C7 29.7614 9.23857 32 12 32H100C102.761 32 105 29.7614 105 27V18C105 15.2386 102.761 13 100 13H12ZM137 17C137 14.7909 138.791 13 141 13H231C233.209 13 235 14.7909 235 17V27C235 29.2091 233.209 31 231 31H141C138.791 31 137 29.2091 137 27V17ZM114 10C111.791 10 110 11.7909 110 14V43C110 45.2091 111.791 47 114 47H128C130.209 47 132 45.2091 132 43V14C132 11.7909 130.209 10 128 10H114Z" fill="white"/>
<path d="M3 5C3 3.89543 3.89543 3 5 3V-3C0.581722 -3 -3 0.581723 -3 5H3ZM3 47V5H-3V47H3ZM5 49C3.89543 49 3 48.1046 3 47H-3C-3 51.4183 0.581722 55 5 55V49ZM236 49H5V55H236V49ZM238 47C238 48.1046 237.105 49 236 49V55C240.418 55 244 51.4183 244 47H238ZM238 5V47H244V5H238ZM236 3C237.105 3 238 3.89543 238 5H244C244 0.581724 240.418 -3 236 -3V3ZM5 3H236V-3H5V3ZM10 18C10 16.8954 10.8954 16 12 16V10C7.58172 10 4 13.5817 4 18H10ZM10 27V18H4V27H10ZM12 29C10.8954 29 10 28.1046 10 27H4C4 31.4183 7.58172 35 12 35V29ZM100 29H12V35H100V29ZM102 27C102 28.1046 101.105 29 100 29V35C104.418 35 108 31.4183 108 27H102ZM102 18V27H108V18H102ZM100 16C101.105 16 102 16.8954 102 18H108C108 13.5817 104.418 10 100 10V16ZM12 16H100V10H12V16ZM141 10C137.134 10 134 13.134 134 17H140C140 16.4477 140.448 16 141 16V10ZM231 10H141V16H231V10ZM238 17C238 13.134 234.866 10 231 10V16C231.552 16 232 16.4477 232 17H238ZM238 27V17H232V27H238ZM231 34C234.866 34 238 30.866 238 27H232C232 27.5523 231.552 28 231 28V34ZM141 34H231V28H141V34ZM134 27C134 30.866 137.134 34 141 34V28C140.448 28 140 27.5523 140 27H134ZM134 17V27H140V17H134ZM113 14C113 13.4477 113.448 13 114 13V7C110.134 7 107 10.134 107 14H113ZM113 43V14H107V43H113ZM114 44C113.448 44 113 43.5523 113 43H107C107 46.866 110.134 50 114 50V44ZM128 44H114V50H128V44ZM129 43C129 43.5523 128.552 44 128 44V50C131.866 50 135 46.866 135 43H129ZM129 14V43H135V14H129ZM128 13C128.552 13 129 13.4477 129 14H135C135 10.134 131.866 7 128 7V13ZM114 13H128V7H114V13Z" fill="white" mask="url(#path-50-inside-5_15_940)"/>
<line x1="767.5" y1="12" x2="767.5" y2="32" stroke="white" stroke-width="3"/>
<line x1="522.5" y1="12" x2="522.5" y2="32" stroke="white" stroke-width="3"/>
<line x1="277.5" y1="12" x2="277.5" y2="32" stroke="white" stroke-width="3"/>
<line x1="32.5" y1="12" x2="32.5" y2="32" stroke="white" stroke-width="3"/>
<line x1="792.5" y1="12" x2="792.5" y2="32" stroke="white" stroke-width="3"/>
<line x1="547.5" y1="12" x2="547.5" y2="32" stroke="white" stroke-width="3"/>
<line x1="302.5" y1="12" x2="302.5" y2="32" stroke="white" stroke-width="3"/>
<line x1="57.5" y1="12" x2="57.5" y2="32" stroke="white" stroke-width="3"/>
<line x1="817.5" y1="12" x2="817.5" y2="32" stroke="white" stroke-width="3"/>
<line x1="572.5" y1="12" x2="572.5" y2="32" stroke="white" stroke-width="3"/>
<line x1="327.5" y1="12" x2="327.5" y2="32" stroke="white" stroke-width="3"/>
<line x1="82.5" y1="12" x2="82.5" y2="32" stroke="white" stroke-width="3"/>
<line x1="895.5" y1="12" x2="895.5" y2="32" stroke="white" stroke-width="3"/>
<line x1="650.5" y1="12" x2="650.5" y2="32" stroke="white" stroke-width="3"/>
<line x1="405.5" y1="12" x2="405.5" y2="32" stroke="white" stroke-width="3"/>
<line x1="160.5" y1="12" x2="160.5" y2="32" stroke="white" stroke-width="3"/>
<line x1="920.5" y1="12" x2="920.5" y2="32" stroke="white" stroke-width="3"/>
<line x1="675.5" y1="12" x2="675.5" y2="32" stroke="white" stroke-width="3"/>
<line x1="430.5" y1="12" x2="430.5" y2="32" stroke="white" stroke-width="3"/>
<line x1="185.5" y1="12" x2="185.5" y2="32" stroke="white" stroke-width="3"/>
<line x1="945.5" y1="12" x2="945.5" y2="32" stroke="white" stroke-width="3"/>
<line x1="700.5" y1="12" x2="700.5" y2="32" stroke="white" stroke-width="3"/>
<line x1="455.5" y1="12" x2="455.5" y2="32" stroke="white" stroke-width="3"/>
<line x1="210.5" y1="12" x2="210.5" y2="32" stroke="white" stroke-width="3"/>
</svg>
